<svg xmlns="http://www.w3.org/2000/svg" viewBox="0 0 77.51 81.12"><defs><style>.cls-1{fill:none;stroke:#231f20;stroke-linecap:round;stroke-linejoin:round;stroke-width:3px;}.cls-2,.cls-3,.cls-4,.cls-5{isolation:isolate;font-family:Noteworthy-Light, Noteworthy;}.cls-2,.cls-3{font-size:32.57px;}.cls-2,.cls-4{fill:#fdfefe;}.cls-3,.cls-5{fill:#9b8579;}.cls-4,.cls-5{font-size:35.5px;}</style></defs><title>Asset 1</title><g id="Layer_2" data-name="Layer 2"><g id="Layer_1-2" data-name="Layer 1"><g id="Layer_2-2" data-name="Layer 2"><g id="Layer_1-2-2" data-name="Layer 1-2"><path class="cls-1" d="M10.56,14.65c.18.23,10.82-9.22,11-8.94C22,6.21,3.45,25.83,3.82,26.29c.53.65,29.8-25.41,30.43-24.64.76.94-33.18,30.92-32.33,32S40.68.44,41.56,1.53.54,39.7,1.52,40.9,47.88,1.68,48.7,2.69,1,45.51,2.21,47s51-43.47,52-42.2S2.56,50.74,3.5,51.9,57.5,5.84,58.66,7.23C60,8.91,4.47,55.58,5.61,57S61.77,9,63,10.52C64.39,12.23,7,59.86,8.11,61.26S65.32,12.54,66.49,14,10,63.7,11.21,65.25C12.32,66.62,68.27,16.37,69.57,18c1,1.23-56.36,48.94-55,50.55,1,1.21,56.29-47.91,57.43-46.5S17,69.87,18.27,71.42s54.32-46.55,55.57-45C74.91,27.75,21.59,72.58,22.76,74S74.4,30.43,75.27,31.51c1.06,1.31-48.49,43.23-47.41,44.57,1,1.17,47.14-40.29,48.14-39,.75.93-43.4,39.2-42.49,40.33.74.91,41.72-35.23,42.42-34.35.9,1.11-35,33.6-34.26,34.55s32-27.25,32.68-26.46S53,74.22,53.46,74.74c.25.31,15-12.79,15.34-12.42"/><text class="cls-2" transform="translate(12.89 46.59) scale(1.29 1)">M</text><text class="cls-3" transform="translate(10.89 44.59) scale(1.29 1)">M</text><text class="cls-4" transform="translate(42.4 65.82) scale(1.4 1)">T</text><text class="cls-5" transform="translate(40.4 63.82) scale(1.4 1)">T</text></g></g></g></g></svg>